# xmcd
# Track frame offsets:
# 150
# 13635
# 25505
# 37700
# 49052
# 60155
# 72750
# 86457
# 102182
# 112915
# 125597
#
# Disc length: 1808 seconds
# Revision: 0
# Processed by: cddbd v1.4PL0 Copyright (c) Steve Scherf et al.
# Submitted via: VisiTrax 2.9.5.181 - For more info visit www.synapsa.com
#
DISCID=75070e0b
DTITLE=Don Williams - Spend Some Time With Me
DYEAR=1994
DGENRE=Country
TTITLE0=Where Do I Go From Here
TTITLE1=Follow Me Back To Louisville
TTITLE2=On Her Way To Being A Woman
TTITLE3=Storybook Children
TTITLE4=Spend Some Time With Me
TTITLE5=Coming Apart
TTITLE6=Ruby Tuesday
TTITLE7=Tears
TTITLE8=Always Something There To remind Me
TTITLE9=There's Never Been A Time
TTITLE10=Take My Hand For A While
EXTD=FAT CD 174
EXTT0=
EXTT1=
EXTT2=
EXTT3=
EXTT4=
EXTT5=
EXTT6=
EXTT7=
EXTT8=
EXTT9=
EXTT10=
PLAYORDER=
